<?xml version="1.0" encoding="utf-8"?>
<!-- Generator: Adobe Illustrator 15.0.0, SVG Export Plug-In  -->
<!DOCTYPE svg PUBLIC "-//W3C//DTD SVG 1.0//EN" "http://www.w3.org/TR/2001/REC-SVG-20010904/DTD/svg10.dtd" [
	<!ENTITY ns_flows "http://ns.adobe.com/Flows/1.0/">
]>
<svg version="1.0"
	 xmlns="http://www.w3.org/2000/svg" xmlns:xlink="http://www.w3.org/1999/xlink" xmlns:a="http://ns.adobe.com/AdobeSVGViewerExtensions/3.0/"
	 x="0px" y="0px" width="842px" height="595px" viewBox="27 0 842 595" overflow="visible" enable-background="new 27 0 842 595"
	 xml:space="preserve">
<defs>
</defs>
<rect x="27" fill="#FFFFFF" width="76.5356445" height="595.2802734"/>
<rect x="103.5356445" fill="#2B3990" width="76.5351562" height="595.2802734"/>
<rect x="180.0708008" fill="#FFFFFF" width="76.5356445" height="595.2802734"/>
<rect x="256.6064453" fill="#2B3990" width="76.5351562" height="595.2802734"/>
<rect x="333.1416016" fill="#FFFFFF" width="76.5356445" height="595.2802734"/>
<rect x="409.6772461" fill="#2B3990" width="76.5356445" height="595.2802734"/>
<rect x="486.2128906" fill="#FFFFFF" width="76.5351562" height="595.2802734"/>
<rect x="562.7480469" fill="#2B3990" width="76.5351562" height="595.2802734"/>
<rect x="639.2832031" fill="#FFFFFF" width="76.5351562" height="595.2802734"/>
<rect x="792.3544922" fill="#FFFFFF" width="76.5351562" height="595.2802734"/>
<rect x="715.8183594" fill="#2B3990" width="76.5361328" height="595.2802734"/>
<circle fill="#BE1E2D" cx="486.2128906" cy="27" r="27"/>
<circle fill="#BE1E2D" cx="486.2128906" cy="135" r="27"/>
<circle fill="#BE1E2D" cx="486.2128906" cy="243" r="27"/>
<circle fill="#BE1E2D" cx="486.2128906" cy="351" r="27"/>
<circle fill="#BE1E2D" cx="486.2128906" cy="459" r="27"/>
<circle fill="#BE1E2D" cx="486.2128906" cy="567" r="27"/>
<circle fill="#BE1E2D" cx="562.7480469" cy="80" r="27"/>
<circle fill="#BE1E2D" cx="562.7480469" cy="188" r="27"/>
<circle fill="#BE1E2D" cx="562.7480469" cy="296" r="27"/>
<circle fill="#BE1E2D" cx="562.7480469" cy="404" r="27"/>
<circle fill="#BE1E2D" cx="562.7480469" cy="512" r="27"/>
<circle fill="#BE1E2D" cx="639.2832031" cy="27" r="27"/>
<circle fill="#BE1E2D" cx="639.2832031" cy="135" r="27"/>
<circle fill="#BE1E2D" cx="639.2832031" cy="243" r="27"/>
<circle fill="#BE1E2D" cx="639.2832031" cy="351" r="27"/>
<circle fill="#BE1E2D" cx="639.2832031" cy="459" r="27"/>
<circle fill="#BE1E2D" cx="639.2832031" cy="567" r="27"/>
<circle fill="#BE1E2D" cx="715.8183594" cy="80" r="27"/>
<circle fill="#BE1E2D" cx="715.8183594" cy="188" r="27"/>
<circle fill="#BE1E2D" cx="715.8183594" cy="296" r="27"/>
<circle fill="#BE1E2D" cx="715.8183594" cy="404" r="27"/>
<circle fill="#BE1E2D" cx="715.8183594" cy="512" r="27"/>
<circle fill="#BE1E2D" cx="792.3544922" cy="27" r="27"/>
<circle fill="#BE1E2D" cx="792.3544922" cy="135" r="27"/>
<circle fill="#BE1E2D" cx="792.3544922" cy="243" r="27"/>
<circle fill="#BE1E2D" cx="792.3544922" cy="351" r="27"/>
<circle fill="#BE1E2D" cx="792.3544922" cy="459" r="27"/>
<circle fill="#BE1E2D" cx="792.3544922" cy="567" r="27"/>
<circle fill="#BE1E2D" cx="868.8896484" cy="80" r="27"/>
<circle fill="#BE1E2D" cx="868.8896484" cy="188" r="27"/>
<circle fill="#BE1E2D" cx="868.8896484" cy="296" r="27"/>
<circle fill="#BE1E2D" cx="868.8896484" cy="404" r="27"/>
<circle fill="#BE1E2D" cx="868.8896484" cy="512" r="27"/>
<circle fill="#BE1E2D" cx="180.0712891" cy="27" r="27"/>
<circle fill="#BE1E2D" cx="180.0712891" cy="135" r="27"/>
<circle fill="#BE1E2D" cx="180.0712891" cy="243" r="27"/>
<circle fill="#BE1E2D" cx="180.0712891" cy="351" r="27"/>
<circle fill="#BE1E2D" cx="180.0712891" cy="459" r="27"/>
<circle fill="#BE1E2D" cx="180.0712891" cy="567" r="27"/>
<circle fill="#BE1E2D" cx="256.6064453" cy="80" r="27"/>
<circle fill="#BE1E2D" cx="256.6064453" cy="188" r="27"/>
<circle fill="#BE1E2D" cx="256.6064453" cy="296" r="27"/>
<circle fill="#BE1E2D" cx="256.6064453" cy="404" r="27"/>
<circle fill="#BE1E2D" cx="256.6064453" cy="512" r="27"/>
<circle fill="#BE1E2D" cx="27" cy="27" r="27"/>
<circle fill="#BE1E2D" cx="27" cy="135" r="27"/>
<circle fill="#BE1E2D" cx="27" cy="243" r="27"/>
<circle fill="#BE1E2D" cx="27" cy="351" r="27"/>
<circle fill="#BE1E2D" cx="27" cy="459" r="27"/>
<circle fill="#BE1E2D" cx="27" cy="567" r="27"/>
<circle fill="#BE1E2D" cx="103.5351562" cy="80" r="27"/>
<circle fill="#BE1E2D" cx="103.5351562" cy="188" r="27"/>
<circle fill="#BE1E2D" cx="103.5351562" cy="296" r="27"/>
<circle fill="#BE1E2D" cx="103.5351562" cy="404" r="27"/>
<circle fill="#BE1E2D" cx="103.5351562" cy="512" r="27"/>
<circle fill="#BE1E2D" cx="333.1416016" cy="27" r="27"/>
<circle fill="#BE1E2D" cx="333.1416016" cy="135" r="27"/>
<circle fill="#BE1E2D" cx="333.1416016" cy="243" r="27"/>
<circle fill="#BE1E2D" cx="333.1416016" cy="351" r="27"/>
<circle fill="#BE1E2D" cx="333.1416016" cy="459" r="27"/>
<circle fill="#BE1E2D" cx="333.1416016" cy="567" r="27"/>
<circle fill="#BE1E2D" cx="409.6767578" cy="80" r="27"/>
<circle fill="#BE1E2D" cx="409.6767578" cy="188" r="27"/>
<circle fill="#BE1E2D" cx="409.6767578" cy="296" r="27"/>
<circle fill="#BE1E2D" cx="409.6767578" cy="404" r="27"/>
<circle fill="#BE1E2D" cx="409.6767578" cy="512" r="27"/>
</svg>
